<?xml version="1.0" encoding="UTF-8" standalone="no"?>
<svg
   id="Layer_1"
   data-name="Layer 1"
   viewBox="0 0 74.750002 44.630002"
   version="1.1"
   sodipodi:docname="4c-02.svg"
   width="74.75"
   height="44.630001"
   inkscape:version="1.2.2 (b0a8486541, 2022-12-01)"
   xmlns:inkscape="http://www.inkscape.org/namespaces/inkscape"
   xmlns:sodipodi="http://sodipodi.sourceforge.net/DTD/sodipodi-0.dtd"
   xmlns="http://www.w3.org/2000/svg"
   xmlns:svg="http://www.w3.org/2000/svg">
  <sodipodi:namedview
     id="namedview240858"
     pagecolor="#ffffff"
     bordercolor="#000000"
     borderopacity="0.25"
     inkscape:showpageshadow="2"
     inkscape:pageopacity="0.0"
     inkscape:pagecheckerboard="0"
     inkscape:deskcolor="#d1d1d1"
     showgrid="false"
     inkscape:zoom="3.0094364"
     inkscape:cx="-2.1598728"
     inkscape:cy="35.887118"
     inkscape:window-width="2880"
     inkscape:window-height="1748"
     inkscape:window-x="0"
     inkscape:window-y="52"
     inkscape:window-maximized="1"
     inkscape:current-layer="Layer_1" />
  <defs
     id="defs240803">
    <style
       id="style240801">
      .cls-1 {
        fill: #fff;
      }

      .cls-2 {
        fill: #f15b40;
      }

      .cls-3 {
        fill: #d2d2d2;
      }

      .cls-4 {
        fill: none;
        stroke: #000;
        stroke-miterlimit: 10;
        stroke-width: .87px;
      }
    </style>
  </defs>
  <g
     id="g240829"
     transform="translate(-8,-3.19)">
    <path
       class="cls-2"
       d="m 17.34,33.53 c -4.91,0 -8.91,-4 -8.91,-8.91 0,-4.91 4,-8.91 8.91,-8.91 4.91,0 8.91,3.99 8.91,8.91 0,4.92 -4,8.91 -8.91,8.91 z"
       id="path240825" />
    <path
       d="m 17.34,16.16 c 4.67,0 8.47,3.8 8.47,8.47 0,4.67 -3.8,8.47 -8.47,8.47 -4.67,0 -8.47,-3.8 -8.47,-8.47 0,-4.67 3.8,-8.47 8.47,-8.47 m 0,-0.87 c -5.16,0 -9.34,4.18 -9.34,9.34 0,5.16 4.18,9.34 9.34,9.34 5.16,0 9.34,-4.18 9.34,-9.34 0,-5.16 -4.18,-9.34 -9.34,-9.34 z"
       id="path240827" />
  </g>
  <polyline
     class="cls-4"
     points="66.84 38.93 48.59 38.93 48.59 10.32 66.84 10.32"
     id="polyline240831"
     transform="translate(-8,-3.19)" />
  <g
     id="g240837"
     transform="translate(-8,-3.19)">
    <line
       class="cls-4"
       x1="55.369999"
       y1="24.629999"
       x2="28.709999"
       y2="24.629999"
       id="line240833" />
    <polygon
       points="29.04,24.63 32.2,27.56 31.6,28.2 27.76,24.63 31.6,21.05 32.2,21.69 "
       id="polygon240835" />
  </g>
  <g
     id="g240843"
     transform="translate(-8,-3.19)">
    <path
       class="cls-1"
       d="m 74.74,18.77 c -4.18,0 -7.58,-3.4 -7.58,-7.57 0,-4.17 3.4,-7.58 7.58,-7.58 4.18,0 7.58,3.4 7.58,7.58 0,4.18 -3.4,7.57 -7.58,7.57 z"
       id="path240839" />
    <path
       d="m 74.74,4.06 c 3.94,0 7.14,3.2 7.14,7.14 0,3.94 -3.2,7.14 -7.14,7.14 -3.94,0 -7.14,-3.2 -7.14,-7.14 0,-3.94 3.2,-7.14 7.14,-7.14 m 0,-0.87 c -4.42,0 -8.01,3.59 -8.01,8.01 0,4.42 3.59,8.01 8.01,8.01 4.42,0 8.01,-3.59 8.01,-8.01 0,-4.42 -3.59,-8.01 -8.01,-8.01 z"
       id="path240841" />
  </g>
  <g
     id="g240849"
     transform="translate(-8,-3.19)">
    <path
       class="cls-1"
       d="m 74.74,47.38 c -4.18,0 -7.58,-3.4 -7.58,-7.58 0,-4.18 3.4,-7.58 7.58,-7.58 4.18,0 7.58,3.4 7.58,7.58 0,4.18 -3.4,7.58 -7.58,7.58 z"
       id="path240845" />
    <path
       d="m 74.74,32.67 c 3.94,0 7.14,3.2 7.14,7.14 0,3.94 -3.2,7.14 -7.14,7.14 -3.94,0 -7.14,-3.2 -7.14,-7.14 0,-3.94 3.2,-7.14 7.14,-7.14 m 0,-0.87 c -4.42,0 -8.01,3.59 -8.01,8.01 0,4.42 3.59,8.01 8.01,8.01 4.42,0 8.01,-3.59 8.01,-8.01 0,-4.42 -3.59,-8.01 -8.01,-8.01 z"
       id="path240847" />
  </g>
  <g
     id="g240855"
     transform="translate(-8,-3.19)">
    <rect
       class="cls-3"
       x="41.25"
       y="17.73"
       width="13.8"
       height="13.8"
       id="rect240851" />
    <path
       d="M 54.61,18.16 V 31.09 H 41.68 V 18.16 h 12.93 m 0.87,-0.87 H 40.8 v 14.68 h 14.68 z"
       id="path240853" />
  </g>
</svg>
