<?xml version="1.0" encoding="UTF-8" standalone="no"?>
<svg
   id="Layer_1"
   data-name="Layer 1"
   viewBox="0 0 336.73521 89.399999"
   version="1.1"
   sodipodi:docname="plenoptic_logo_wide.svg"
   width="336.7352"
   height="89.400002"
   inkscape:version="1.2.2 (b0a8486541, 2022-12-01)"
   xmlns:inkscape="http://www.inkscape.org/namespaces/inkscape"
   xmlns:sodipodi="http://sodipodi.sourceforge.net/DTD/sodipodi-0.dtd"
   xmlns="http://www.w3.org/2000/svg"
   xmlns:svg="http://www.w3.org/2000/svg">
  <sodipodi:namedview
     id="namedview242793"
     pagecolor="#ffffff"
     bordercolor="#000000"
     borderopacity="0.25"
     inkscape:showpageshadow="2"
     inkscape:pageopacity="0.0"
     inkscape:pagecheckerboard="0"
     inkscape:deskcolor="#d1d1d1"
     showgrid="false"
     inkscape:zoom="1.633331"
     inkscape:cx="166.83698"
     inkscape:cy="70.408265"
     inkscape:window-width="2880"
     inkscape:window-height="1748"
     inkscape:window-x="0"
     inkscape:window-y="52"
     inkscape:window-maximized="1"
     inkscape:current-layer="Layer_1" />
  <defs
     id="defs242732">
    <style
       id="style242730">
      .cls-1 {
        fill: #fff;
      }

      .cls-2 {
        fill: #f15b40;
      }

      .cls-3 {
        fill: #d2d2d2;
      }

      .cls-4 {
        fill: none;
        stroke: #000;
        stroke-miterlimit: 10;
        stroke-width: 1.75px;
      }
    </style>
  </defs>
  <g
     id="g242752"
     transform="translate(-4.87,-76.66)">
    <path
       d="m 4.87,112.19 h 3.38 v 2.55 h 0.08 c 0.65,-0.95 1.54,-1.69 2.68,-2.22 1.14,-0.53 2.31,-0.79 3.51,-0.79 1.38,0 2.62,0.24 3.74,0.71 1.11,0.48 2.07,1.14 2.85,1.99 0.79,0.85 1.4,1.85 1.82,2.99 0.42,1.14 0.64,2.36 0.64,3.66 0,1.3 -0.21,2.56 -0.64,3.7 -0.43,1.14 -1.03,2.13 -1.82,2.97 -0.79,0.84 -1.74,1.5 -2.85,1.97 -1.11,0.47 -2.36,0.71 -3.74,0.71 -1.28,0 -2.48,-0.27 -3.6,-0.81 -1.13,-0.54 -1.99,-1.27 -2.59,-2.2 H 8.25 v 13.14 H 4.87 v -28.39 z m 9.24,2.7 c -0.9,0 -1.71,0.16 -2.44,0.47 -0.73,0.31 -1.34,0.74 -1.84,1.28 -0.5,0.54 -0.89,1.19 -1.16,1.95 -0.28,0.76 -0.41,1.6 -0.41,2.5 0,0.9 0.14,1.73 0.41,2.5 0.27,0.76 0.66,1.41 1.16,1.95 0.5,0.54 1.11,0.96 1.84,1.28 0.73,0.31 1.54,0.47 2.44,0.47 0.9,0 1.71,-0.16 2.44,-0.47 0.73,-0.31 1.34,-0.74 1.84,-1.28 0.5,-0.54 0.89,-1.19 1.16,-1.95 0.27,-0.76 0.41,-1.6 0.41,-2.5 0,-0.9 -0.14,-1.73 -0.41,-2.5 -0.28,-0.76 -0.66,-1.41 -1.16,-1.95 -0.5,-0.54 -1.11,-0.96 -1.84,-1.28 -0.73,-0.31 -1.54,-0.47 -2.44,-0.47 z"
       id="path242734" />
    <path
       d="m 29.02,101.6 h 3.38 v 28.39 h -3.38 z"
       id="path242736" />
    <path
       d="m 41.26,122.33 c 0,0.78 0.17,1.48 0.51,2.12 0.34,0.64 0.78,1.18 1.33,1.63 0.55,0.45 1.19,0.8 1.92,1.05 0.73,0.25 1.48,0.38 2.25,0.38 1.05,0 1.96,-0.24 2.74,-0.73 0.78,-0.49 1.49,-1.13 2.14,-1.93 l 2.55,1.95 c -1.88,2.43 -4.51,3.64 -7.89,3.64 -1.4,0 -2.67,-0.24 -3.81,-0.71 -1.14,-0.48 -2.1,-1.13 -2.89,-1.97 -0.79,-0.84 -1.4,-1.83 -1.82,-2.97 -0.43,-1.14 -0.64,-2.37 -0.64,-3.7 0,-1.33 0.23,-2.56 0.7,-3.7 0.46,-1.14 1.1,-2.13 1.92,-2.97 0.81,-0.84 1.78,-1.5 2.91,-1.97 1.13,-0.47 2.35,-0.71 3.68,-0.71 1.58,0 2.91,0.28 4,0.83 1.09,0.55 1.98,1.27 2.69,2.16 0.7,0.89 1.21,1.89 1.52,3 0.31,1.11 0.47,2.25 0.47,3.4 v 1.2 H 41.27 Z m 10.66,-2.7 c -0.02,-0.75 -0.14,-1.44 -0.36,-2.07 -0.22,-0.63 -0.53,-1.17 -0.96,-1.63 -0.43,-0.46 -0.96,-0.83 -1.6,-1.09 -0.64,-0.26 -1.38,-0.39 -2.23,-0.39 -0.85,0 -1.58,0.16 -2.27,0.47 -0.69,0.31 -1.27,0.72 -1.75,1.22 -0.48,0.5 -0.84,1.06 -1.11,1.67 -0.26,0.61 -0.39,1.22 -0.39,1.82 h 10.66 z"
       id="path242738" />
    <path
       d="m 60.52,112.19 h 3.38 v 2.74 h 0.08 c 0.42,-0.95 1.16,-1.72 2.21,-2.31 1.05,-0.59 2.27,-0.88 3.64,-0.88 0.85,0 1.67,0.13 2.46,0.39 0.79,0.26 1.48,0.67 2.07,1.22 0.59,0.55 1.06,1.26 1.41,2.12 0.35,0.86 0.53,1.88 0.53,3.06 v 11.45 h -3.38 v -10.51 c 0,-0.83 -0.11,-1.53 -0.34,-2.12 -0.22,-0.59 -0.53,-1.06 -0.9,-1.43 -0.38,-0.36 -0.81,-0.62 -1.29,-0.79 -0.48,-0.17 -1,-0.24 -1.52,-0.24 -0.7,0 -1.35,0.11 -1.95,0.34 -0.6,0.23 -1.13,0.58 -1.58,1.07 -0.45,0.49 -0.8,1.11 -1.05,1.86 -0.25,0.75 -0.38,1.64 -0.38,2.67 v 9.16 h -3.38 v -17.8 z"
       id="path242740" />
    <path
       d="m 81.48,121.09 c 0,-1.3 0.24,-2.52 0.73,-3.64 0.49,-1.13 1.16,-2.12 2.01,-2.97 0.85,-0.85 1.85,-1.52 3,-2.01 1.15,-0.49 2.39,-0.73 3.72,-0.73 1.33,0 2.57,0.24 3.72,0.73 1.15,0.49 2.15,1.16 3,2.01 0.85,0.85 1.52,1.84 2.01,2.97 0.49,1.13 0.73,2.34 0.73,3.64 0,1.3 -0.24,2.52 -0.73,3.66 -0.49,1.14 -1.16,2.13 -2.01,2.97 -0.85,0.84 -1.85,1.5 -3,1.99 -1.15,0.49 -2.39,0.73 -3.72,0.73 -1.33,0 -2.57,-0.24 -3.72,-0.73 -1.15,-0.49 -2.15,-1.15 -3,-1.99 -0.85,-0.84 -1.52,-1.83 -2.01,-2.97 -0.49,-1.14 -0.73,-2.36 -0.73,-3.66 z m 3.61,0 c 0,0.9 0.14,1.73 0.41,2.5 0.28,0.76 0.66,1.41 1.16,1.95 0.5,0.54 1.11,0.96 1.84,1.28 0.73,0.31 1.54,0.47 2.44,0.47 0.9,0 1.71,-0.16 2.44,-0.47 0.73,-0.31 1.34,-0.74 1.84,-1.28 0.5,-0.54 0.89,-1.19 1.16,-1.95 0.27,-0.76 0.41,-1.6 0.41,-2.5 0,-0.9 -0.14,-1.73 -0.41,-2.5 -0.28,-0.76 -0.66,-1.41 -1.16,-1.95 -0.5,-0.54 -1.11,-0.96 -1.84,-1.28 -0.73,-0.31 -1.54,-0.47 -2.44,-0.47 -0.9,0 -1.72,0.16 -2.44,0.47 -0.73,0.31 -1.34,0.74 -1.84,1.28 -0.5,0.54 -0.89,1.19 -1.16,1.95 -0.28,0.76 -0.41,1.6 -0.41,2.5 z"
       id="path242742" />
    <path
       d="m 105.59,112.19 h 3.38 v 2.55 h 0.08 c 0.65,-0.95 1.54,-1.69 2.68,-2.22 1.14,-0.53 2.31,-0.79 3.51,-0.79 1.38,0 2.62,0.24 3.74,0.71 1.11,0.48 2.07,1.14 2.85,1.99 0.79,0.85 1.4,1.85 1.82,2.99 0.42,1.14 0.64,2.36 0.64,3.66 0,1.3 -0.21,2.56 -0.64,3.7 -0.43,1.14 -1.03,2.13 -1.82,2.97 -0.79,0.84 -1.74,1.5 -2.85,1.97 -1.11,0.47 -2.36,0.71 -3.74,0.71 -1.28,0 -2.48,-0.27 -3.6,-0.81 -1.13,-0.54 -1.99,-1.27 -2.59,-2.2 h -0.08 v 13.14 h -3.38 v -28.39 z m 9.24,2.7 c -0.9,0 -1.71,0.16 -2.44,0.47 -0.73,0.31 -1.34,0.74 -1.84,1.28 -0.5,0.54 -0.89,1.19 -1.16,1.95 -0.28,0.76 -0.41,1.6 -0.41,2.5 0,0.9 0.14,1.73 0.41,2.5 0.27,0.76 0.66,1.41 1.16,1.95 0.5,0.54 1.11,0.96 1.84,1.28 0.73,0.31 1.54,0.47 2.44,0.47 0.9,0 1.71,-0.16 2.44,-0.47 0.73,-0.31 1.34,-0.74 1.84,-1.28 0.5,-0.54 0.89,-1.19 1.16,-1.95 0.27,-0.76 0.41,-1.6 0.41,-2.5 0,-0.9 -0.14,-1.73 -0.41,-2.5 -0.28,-0.76 -0.66,-1.41 -1.16,-1.95 -0.5,-0.54 -1.11,-0.96 -1.84,-1.28 -0.73,-0.31 -1.54,-0.47 -2.44,-0.47 z"
       id="path242744" />
    <path
       d="m 139.01,115.12 h -4.84 v 8.07 c 0,0.5 0.01,1 0.04,1.48 0.02,0.49 0.12,0.93 0.28,1.31 0.16,0.38 0.41,0.7 0.75,0.94 0.34,0.24 0.83,0.36 1.48,0.36 0.4,0 0.81,-0.04 1.24,-0.11 0.43,-0.07 0.81,-0.21 1.16,-0.41 v 3.08 c -0.4,0.23 -0.92,0.38 -1.56,0.47 -0.64,0.09 -1.13,0.13 -1.48,0.13 -1.3,0 -2.31,-0.18 -3.02,-0.54 -0.71,-0.36 -1.24,-0.83 -1.58,-1.41 -0.34,-0.58 -0.54,-1.22 -0.6,-1.93 -0.06,-0.71 -0.09,-1.43 -0.09,-2.16 v -9.27 h -3.91 v -2.93 h 3.91 v -4.99 h 3.38 v 4.99 h 4.84 v 2.93 z"
       id="path242746" />
    <path
       d="m 143.77,105.81 c 0,-0.68 0.24,-1.26 0.73,-1.75 0.49,-0.49 1.07,-0.73 1.75,-0.73 0.68,0 1.26,0.24 1.75,0.73 0.49,0.49 0.73,1.07 0.73,1.75 0,0.68 -0.24,1.26 -0.73,1.75 -0.49,0.49 -1.07,0.73 -1.75,0.73 -0.68,0 -1.26,-0.24 -1.75,-0.73 -0.49,-0.49 -0.73,-1.07 -0.73,-1.75 z m 0.79,6.38 h 3.38 v 17.8 h -3.38 z"
       id="path242748" />
    <path
       d="m 166.98,116.92 c -0.63,-0.65 -1.28,-1.15 -1.97,-1.48 -0.69,-0.34 -1.51,-0.51 -2.46,-0.51 -0.95,0 -1.73,0.17 -2.42,0.51 -0.69,0.34 -1.26,0.8 -1.73,1.39 -0.46,0.59 -0.81,1.26 -1.05,2.03 -0.24,0.77 -0.36,1.56 -0.36,2.38 0,0.82 0.14,1.61 0.41,2.35 0.28,0.74 0.66,1.38 1.16,1.93 0.5,0.55 1.1,0.98 1.8,1.3 0.7,0.31 1.49,0.47 2.37,0.47 0.95,0 1.77,-0.17 2.44,-0.51 0.67,-0.34 1.3,-0.83 1.88,-1.48 l 2.4,2.4 c -0.88,0.98 -1.9,1.68 -3.06,2.1 -1.16,0.42 -2.4,0.64 -3.7,0.64 -1.38,0 -2.64,-0.22 -3.77,-0.68 -1.14,-0.45 -2.12,-1.08 -2.95,-1.9 -0.83,-0.81 -1.46,-1.79 -1.92,-2.93 -0.45,-1.14 -0.68,-2.4 -0.68,-3.77 0,-1.37 0.23,-2.64 0.68,-3.79 0.45,-1.15 1.08,-2.14 1.9,-2.97 0.82,-0.83 1.79,-1.47 2.93,-1.93 1.14,-0.46 2.41,-0.7 3.81,-0.7 1.3,0 2.55,0.23 3.74,0.7 1.19,0.46 2.22,1.17 3.1,2.12 z"
       id="path242750" />
  </g>
  <g
     id="g242758"
     transform="translate(174.6852,-1.64)">
    <circle
       class="cls-2"
       cx="30.190001"
       cy="46.060001"
       r="17.83"
       id="circle242754" />
    <path
       d="m 30.19,29.1 c 9.35,0 16.96,7.61 16.96,16.96 0,9.35 -7.61,16.96 -16.96,16.96 -9.35,0 -16.96,-7.61 -16.96,-16.96 0,-9.35 7.61,-16.96 16.96,-16.96 m 0,-1.75 c -10.33,0 -18.71,8.38 -18.71,18.71 0,10.33 8.38,18.71 18.71,18.71 10.33,0 18.71,-8.38 18.71,-18.71 0,-10.33 -8.38,-18.71 -18.71,-18.71 z"
       id="path242756" />
  </g>
  <polyline
     class="cls-4"
     points="130.17 74.71 92.77 74.71 92.77 17.41 130.17 17.41"
     id="polyline242760"
     transform="translate(174.6852,-1.64)" />
  <g
     id="g242766"
     transform="translate(174.6852,-1.64)">
    <line
       class="cls-4"
       x1="106.36"
       y1="46.060001"
       x2="52.950001"
       y2="46.060001"
       id="line242762" />
    <polygon
       points="58.75,53.21 51.06,46.06 58.75,38.9 59.95,40.18 53.62,46.06 59.95,51.93 "
       id="polygon242764" />
  </g>
  <g
     id="g242772"
     transform="translate(174.6852,-1.64)">
    <path
       class="cls-1"
       d="m 146,32.85 c -8.37,0 -15.17,-6.81 -15.17,-15.17 0,-8.36 6.81,-15.17 15.17,-15.17 8.36,0 15.17,6.81 15.17,15.17 0,8.36 -6.81,15.17 -15.17,15.17 z"
       id="path242768" />
    <path
       d="m 146,3.39 c 7.88,0 14.3,6.41 14.3,14.3 0,7.89 -6.41,14.3 -14.3,14.3 -7.89,0 -14.3,-6.41 -14.3,-14.3 0,-7.89 6.41,-14.3 14.3,-14.3 m 0,-1.75 c -8.86,0 -16.05,7.18 -16.05,16.05 0,8.87 7.18,16.05 16.05,16.05 8.87,0 16.05,-7.18 16.05,-16.05 0,-8.87 -7.18,-16.05 -16.05,-16.05 z"
       id="path242770" />
  </g>
  <g
     id="g242778"
     transform="translate(174.6852,-1.64)">
    <path
       class="cls-1"
       d="m 146,90.15 c -8.37,0 -15.17,-6.81 -15.17,-15.17 0,-8.36 6.81,-15.17 15.17,-15.17 8.36,0 15.17,6.81 15.17,15.17 0,8.36 -6.81,15.17 -15.17,15.17 z"
       id="path242774" />
    <path
       d="m 146,60.69 c 7.88,0 14.3,6.41 14.3,14.3 0,7.89 -6.41,14.3 -14.3,14.3 -7.89,0 -14.3,-6.41 -14.3,-14.3 0,-7.89 6.41,-14.3 14.3,-14.3 m 0,-1.75 c -8.86,0 -16.05,7.18 -16.05,16.05 0,8.87 7.18,16.05 16.05,16.05 8.87,0 16.05,-7.18 16.05,-16.05 0,-8.87 -7.18,-16.05 -16.05,-16.05 z"
       id="path242776" />
  </g>
  <path
     class="cls-1"
     d="m 32.86,42.74 c -0.23,-0.29 -0.53,-0.5 -0.92,-0.63 -0.39,-0.14 -0.75,-0.21 -1.1,-0.21 -0.2,0 -0.41,0.02 -0.62,0.07 -0.21,0.05 -0.42,0.12 -0.61,0.22 -0.19,0.1 -0.35,0.24 -0.46,0.4 -0.12,0.17 -0.18,0.37 -0.18,0.61 0,0.38 0.14,0.67 0.43,0.88 0.29,0.21 0.65,0.38 1.08,0.52 0.43,0.14 0.9,0.29 1.4,0.43 0.5,0.14 0.97,0.35 1.4,0.61 0.43,0.26 0.79,0.61 1.08,1.05 0.29,0.44 0.43,1.03 0.43,1.77 0,0.74 -0.13,1.32 -0.39,1.84 -0.26,0.52 -0.62,0.96 -1.06,1.3 -0.45,0.35 -0.96,0.6 -1.55,0.77 -0.59,0.17 -1.21,0.25 -1.87,0.25 -0.82,0 -1.58,-0.12 -2.29,-0.38 -0.7,-0.25 -1.36,-0.65 -1.96,-1.21 l 1.98,-2.18 c 0.29,0.38 0.65,0.68 1.08,0.88 0.43,0.21 0.88,0.31 1.35,0.31 0.23,0 0.46,-0.03 0.69,-0.08 0.23,-0.05 0.44,-0.13 0.62,-0.24 0.18,-0.11 0.33,-0.24 0.45,-0.41 0.11,-0.17 0.17,-0.36 0.17,-0.59 0,-0.38 -0.15,-0.68 -0.44,-0.9 -0.29,-0.22 -0.66,-0.41 -1.1,-0.56 -0.44,-0.15 -0.92,-0.31 -1.43,-0.46 -0.51,-0.15 -0.99,-0.36 -1.43,-0.62 -0.44,-0.26 -0.81,-0.61 -1.1,-1.04 -0.29,-0.43 -0.44,-0.99 -0.44,-1.7 0,-0.71 0.13,-1.27 0.4,-1.79 0.27,-0.51 0.63,-0.94 1.07,-1.29 0.45,-0.35 0.96,-0.6 1.55,-0.78 0.58,-0.17 1.19,-0.26 1.8,-0.26 0.71,0 1.41,0.1 2.07,0.3 0.67,0.2 1.27,0.54 1.8,1.02 l -1.91,2.09 z"
     id="path242780"
     transform="translate(174.6852,-1.64)" />
  <path
     d="m 141.25,68.3 h 4.45 c 0.81,0 1.48,0.11 2,0.33 0.52,0.22 0.94,0.5 1.24,0.84 0.3,0.34 0.52,0.72 0.63,1.14 0.11,0.42 0.18,0.83 0.18,1.22 0,0.39 -0.07,0.79 -0.21,1.17 -0.14,0.38 -0.35,0.71 -0.62,1.02 -0.27,0.3 -0.6,0.56 -0.98,0.77 -0.39,0.21 -0.82,0.34 -1.3,0.38 l 3.59,5.77 h -2.14 l -3.22,-5.58 h -1.91 v 5.58 h -1.72 V 68.29 Z m 1.72,5.58 h 2.25 c 0.33,0 0.66,-0.03 0.99,-0.08 0.33,-0.05 0.62,-0.15 0.88,-0.29 0.26,-0.14 0.46,-0.35 0.62,-0.62 0.15,-0.27 0.23,-0.62 0.23,-1.04 0,-0.42 -0.08,-0.78 -0.23,-1.05 -0.16,-0.27 -0.36,-0.47 -0.62,-0.62 -0.26,-0.14 -0.55,-0.24 -0.88,-0.29 -0.33,-0.05 -0.66,-0.08 -0.99,-0.08 h -2.25 z"
     id="path242782"
     transform="translate(174.6852,-1.64)" />
  <g
     id="g242788"
     transform="translate(174.6852,-1.64)">
    <rect
       class="cls-3"
       x="78.07"
       y="32.240002"
       width="27.639999"
       height="27.639999"
       id="rect242784" />
    <path
       d="M 104.84,33.11 V 59 H 78.95 V 33.11 h 25.89 m 1.75,-1.75 H 77.2 v 29.39 h 29.39 z"
       id="path242786" />
  </g>
  <path
     d="m 142.37,17.21 c 0,-3.65 1.48,-6.43 4.18,-6.43 2.7,0 4.02,2.59 4.02,6.43 0,3.84 -1.3,6.65 -4.07,6.65 -2.56,0 -4.13,-2.23 -4.13,-6.65 z m 6.65,-0.68 c -0.02,-2.54 -0.82,-4.59 -2.56,-4.59 -1.59,0 -2.54,2.16 -2.54,4.59 h 5.09 z m -5.09,1.18 c 0,3.18 1.07,4.99 2.61,4.99 1.68,0 2.48,-2.07 2.48,-4.99 z"
     id="path242790"
     transform="translate(174.6852,-1.64)" />
</svg>
