<?xml version="1.0" encoding="UTF-8"?>
<svg id="Layer_1" data-name="Layer 1" xmlns="http://www.w3.org/2000/svg" viewBox="0 0 175.06 144.49">
  <defs>
    <style>
      .cls-1 {
        fill: #fff;
      }

      .cls-2 {
        fill: #f15b40;
      }

      .cls-3 {
        fill: #d2d2d2;
      }

      .cls-4 {
        fill: none;
        stroke: #000;
        stroke-miterlimit: 10;
        stroke-width: 1.75px;
      }
    </style>
  </defs>
  <g>
    <path d="m4.87,112.19h3.38v2.55h.08c.65-.95,1.54-1.69,2.68-2.22,1.14-.53,2.31-.79,3.51-.79,1.38,0,2.62.24,3.74.71,1.11.48,2.07,1.14,2.85,1.99.79.85,1.4,1.85,1.82,2.99.42,1.14.64,2.36.64,3.66s-.21,2.56-.64,3.7c-.43,1.14-1.03,2.13-1.82,2.97-.79.84-1.74,1.5-2.85,1.97s-2.36.71-3.74.71c-1.28,0-2.48-.27-3.6-.81-1.13-.54-1.99-1.27-2.59-2.2h-.08v13.14h-3.38v-28.39Zm9.24,2.7c-.9,0-1.71.16-2.44.47-.73.31-1.34.74-1.84,1.28-.5.54-.89,1.19-1.16,1.95-.28.76-.41,1.6-.41,2.5s.14,1.73.41,2.5c.27.76.66,1.41,1.16,1.95.5.54,1.11.96,1.84,1.28.73.31,1.54.47,2.44.47s1.71-.16,2.44-.47c.73-.31,1.34-.74,1.84-1.28.5-.54.89-1.19,1.16-1.95s.41-1.6.41-2.5-.14-1.73-.41-2.5c-.28-.76-.66-1.41-1.16-1.95-.5-.54-1.11-.96-1.84-1.28-.73-.31-1.54-.47-2.44-.47Z"/>
    <path d="m29.02,101.6h3.38v28.39h-3.38v-28.39Z"/>
    <path d="m41.26,122.33c0,.78.17,1.48.51,2.12s.78,1.18,1.33,1.63c.55.45,1.19.8,1.92,1.05.73.25,1.48.38,2.25.38,1.05,0,1.96-.24,2.74-.73s1.49-1.13,2.14-1.93l2.55,1.95c-1.88,2.43-4.51,3.64-7.89,3.64-1.4,0-2.67-.24-3.81-.71-1.14-.48-2.1-1.13-2.89-1.97-.79-.84-1.4-1.83-1.82-2.97-.43-1.14-.64-2.37-.64-3.7s.23-2.56.7-3.7c.46-1.14,1.1-2.13,1.92-2.97.81-.84,1.78-1.5,2.91-1.97,1.13-.47,2.35-.71,3.68-.71,1.58,0,2.91.28,4,.83,1.09.55,1.98,1.27,2.69,2.16.7.89,1.21,1.89,1.52,3,.31,1.11.47,2.25.47,3.4v1.2h-14.27Zm10.66-2.7c-.02-.75-.14-1.44-.36-2.07s-.53-1.17-.96-1.63c-.43-.46-.96-.83-1.6-1.09-.64-.26-1.38-.39-2.23-.39s-1.58.16-2.27.47c-.69.31-1.27.72-1.75,1.22-.48.5-.84,1.06-1.11,1.67-.26.61-.39,1.22-.39,1.82h10.66Z"/>
    <path d="m60.52,112.19h3.38v2.74h.08c.42-.95,1.16-1.72,2.21-2.31,1.05-.59,2.27-.88,3.64-.88.85,0,1.67.13,2.46.39.79.26,1.48.67,2.07,1.22.59.55,1.06,1.26,1.41,2.12.35.86.53,1.88.53,3.06v11.45h-3.38v-10.51c0-.83-.11-1.53-.34-2.12-.22-.59-.53-1.06-.9-1.43-.38-.36-.81-.62-1.29-.79s-1-.24-1.52-.24c-.7,0-1.35.11-1.95.34s-1.13.58-1.58,1.07c-.45.49-.8,1.11-1.05,1.86s-.38,1.64-.38,2.67v9.16h-3.38v-17.8Z"/>
    <path d="m81.48,121.09c0-1.3.24-2.52.73-3.64.49-1.13,1.16-2.12,2.01-2.97.85-.85,1.85-1.52,3-2.01,1.15-.49,2.39-.73,3.72-.73s2.57.24,3.72.73c1.15.49,2.15,1.16,3,2.01.85.85,1.52,1.84,2.01,2.97.49,1.13.73,2.34.73,3.64s-.24,2.52-.73,3.66c-.49,1.14-1.16,2.13-2.01,2.97-.85.84-1.85,1.5-3,1.99-1.15.49-2.39.73-3.72.73s-2.57-.24-3.72-.73c-1.15-.49-2.15-1.15-3-1.99-.85-.84-1.52-1.83-2.01-2.97-.49-1.14-.73-2.36-.73-3.66Zm3.61,0c0,.9.14,1.73.41,2.5.28.76.66,1.41,1.16,1.95.5.54,1.11.96,1.84,1.28.73.31,1.54.47,2.44.47s1.71-.16,2.44-.47c.73-.31,1.34-.74,1.84-1.28.5-.54.89-1.19,1.16-1.95s.41-1.6.41-2.5-.14-1.73-.41-2.5c-.28-.76-.66-1.41-1.16-1.95s-1.11-.96-1.84-1.28c-.73-.31-1.54-.47-2.44-.47s-1.72.16-2.44.47c-.73.31-1.34.74-1.84,1.28-.5.54-.89,1.19-1.16,1.95-.28.76-.41,1.6-.41,2.5Z"/>
    <path d="m105.59,112.19h3.38v2.55h.08c.65-.95,1.54-1.69,2.68-2.22,1.14-.53,2.31-.79,3.51-.79,1.38,0,2.62.24,3.74.71,1.11.48,2.07,1.14,2.85,1.99.79.85,1.4,1.85,1.82,2.99.42,1.14.64,2.36.64,3.66s-.21,2.56-.64,3.7c-.43,1.14-1.03,2.13-1.82,2.97-.79.84-1.74,1.5-2.85,1.97s-2.36.71-3.74.71c-1.28,0-2.48-.27-3.6-.81-1.13-.54-1.99-1.27-2.59-2.2h-.08v13.14h-3.38v-28.39Zm9.24,2.7c-.9,0-1.71.16-2.44.47-.73.31-1.34.74-1.84,1.28-.5.54-.89,1.19-1.16,1.95-.28.76-.41,1.6-.41,2.5s.14,1.73.41,2.5c.27.76.66,1.41,1.16,1.95.5.54,1.11.96,1.84,1.28.73.31,1.54.47,2.44.47s1.71-.16,2.44-.47c.73-.31,1.34-.74,1.84-1.28.5-.54.89-1.19,1.16-1.95s.41-1.6.41-2.5-.14-1.73-.41-2.5c-.28-.76-.66-1.41-1.16-1.95-.5-.54-1.11-.96-1.84-1.28-.73-.31-1.54-.47-2.44-.47Z"/>
    <path d="m139.01,115.12h-4.84v8.07c0,.5.01,1,.04,1.48.02.49.12.93.28,1.31s.41.7.75.94c.34.24.83.36,1.48.36.4,0,.81-.04,1.24-.11s.81-.21,1.16-.41v3.08c-.4.23-.92.38-1.56.47-.64.09-1.13.13-1.48.13-1.3,0-2.31-.18-3.02-.54s-1.24-.83-1.58-1.41-.54-1.22-.6-1.93c-.06-.71-.09-1.43-.09-2.16v-9.27h-3.91v-2.93h3.91v-4.99h3.38v4.99h4.84v2.93Z"/>
    <path d="m143.77,105.81c0-.68.24-1.26.73-1.75s1.07-.73,1.75-.73,1.26.24,1.75.73c.49.49.73,1.07.73,1.75s-.24,1.26-.73,1.75c-.49.49-1.07.73-1.75.73s-1.26-.24-1.75-.73-.73-1.07-.73-1.75Zm.79,6.38h3.38v17.8h-3.38v-17.8Z"/>
    <path d="m166.98,116.92c-.63-.65-1.28-1.15-1.97-1.48-.69-.34-1.51-.51-2.46-.51s-1.73.17-2.42.51c-.69.34-1.26.8-1.73,1.39-.46.59-.81,1.26-1.05,2.03s-.36,1.56-.36,2.38.14,1.61.41,2.35c.28.74.66,1.38,1.16,1.93.5.55,1.1.98,1.8,1.3.7.31,1.49.47,2.37.47.95,0,1.77-.17,2.44-.51s1.3-.83,1.88-1.48l2.4,2.4c-.88.98-1.9,1.68-3.06,2.1-1.16.42-2.4.64-3.7.64-1.38,0-2.64-.22-3.77-.68-1.14-.45-2.12-1.08-2.95-1.9-.83-.81-1.46-1.79-1.92-2.93-.45-1.14-.68-2.4-.68-3.77s.23-2.64.68-3.79c.45-1.15,1.08-2.14,1.9-2.97s1.79-1.47,2.93-1.93c1.14-.46,2.41-.7,3.81-.7,1.3,0,2.55.23,3.74.7,1.19.46,2.22,1.17,3.1,2.12l-2.55,2.33Z"/>
  </g>
  <g>
    <circle class="cls-2" cx="30.19" cy="46.06" r="17.83"/>
    <path d="m30.19,29.1c9.35,0,16.96,7.61,16.96,16.96s-7.61,16.96-16.96,16.96-16.96-7.61-16.96-16.96,7.61-16.96,16.96-16.96m0-1.75c-10.33,0-18.71,8.38-18.71,18.71s8.38,18.71,18.71,18.71,18.71-8.38,18.71-18.71-8.38-18.71-18.71-18.71h0Z"/>
  </g>
  <polyline class="cls-4" points="130.17 74.71 92.77 74.71 92.77 17.41 130.17 17.41"/>
  <g>
    <line class="cls-4" x1="106.36" y1="46.06" x2="52.95" y2="46.06"/>
    <polygon points="58.75 38.9 59.95 40.18 53.62 46.06 59.95 51.93 58.75 53.21 51.06 46.06 58.75 38.9"/>
  </g>
  <g>
    <path class="cls-1" d="m146,32.85c-8.37,0-15.17-6.81-15.17-15.17s6.81-15.17,15.17-15.17,15.17,6.81,15.17,15.17-6.81,15.17-15.17,15.17Z"/>
    <path d="m146,3.39c7.88,0,14.3,6.41,14.3,14.3s-6.41,14.3-14.3,14.3-14.3-6.41-14.3-14.3,6.41-14.3,14.3-14.3m0-1.75c-8.86,0-16.05,7.18-16.05,16.05s7.18,16.05,16.05,16.05,16.05-7.18,16.05-16.05-7.18-16.05-16.05-16.05h0Z"/>
  </g>
  <g>
    <path class="cls-1" d="m146,90.15c-8.37,0-15.17-6.81-15.17-15.17s6.81-15.17,15.17-15.17,15.17,6.81,15.17,15.17-6.81,15.17-15.17,15.17Z"/>
    <path d="m146,60.69c7.88,0,14.3,6.41,14.3,14.3s-6.41,14.3-14.3,14.3-14.3-6.41-14.3-14.3,6.41-14.3,14.3-14.3m0-1.75c-8.86,0-16.05,7.18-16.05,16.05s7.18,16.05,16.05,16.05,16.05-7.18,16.05-16.05-7.18-16.05-16.05-16.05h0Z"/>
  </g>
  <path class="cls-1" d="m32.86,42.74c-.23-.29-.53-.5-.92-.63-.39-.14-.75-.21-1.1-.21-.2,0-.41.02-.62.07-.21.05-.42.12-.61.22-.19.1-.35.24-.46.4-.12.17-.18.37-.18.61,0,.38.14.67.43.88s.65.38,1.08.52.9.29,1.4.43c.5.14.97.35,1.4.61.43.26.79.61,1.08,1.05.29.44.43,1.03.43,1.77s-.13,1.32-.39,1.84c-.26.52-.62.96-1.06,1.3-.45.35-.96.6-1.55.77-.59.17-1.21.25-1.87.25-.82,0-1.58-.12-2.29-.38-.7-.25-1.36-.65-1.96-1.21l1.98-2.18c.29.38.65.68,1.08.88.43.21.88.31,1.35.31.23,0,.46-.03.69-.08s.44-.13.62-.24c.18-.11.33-.24.45-.41.11-.17.17-.36.17-.59,0-.38-.15-.68-.44-.9s-.66-.41-1.1-.56c-.44-.15-.92-.31-1.43-.46-.51-.15-.99-.36-1.43-.62-.44-.26-.81-.61-1.1-1.04s-.44-.99-.44-1.7.13-1.27.4-1.79c.27-.51.63-.94,1.07-1.29.45-.35.96-.6,1.55-.78.58-.17,1.19-.26,1.8-.26.71,0,1.41.1,2.07.3.67.2,1.27.54,1.8,1.02l-1.91,2.09Z"/>
  <path d="m141.25,68.3h4.45c.81,0,1.48.11,2,.33.52.22.94.5,1.24.84.3.34.52.72.63,1.14s.18.83.18,1.22-.07.79-.21,1.17c-.14.38-.35.71-.62,1.02-.27.3-.6.56-.98.77-.39.21-.82.34-1.3.38l3.59,5.77h-2.14l-3.22-5.58h-1.91v5.58h-1.72v-12.65Zm1.72,5.58h2.25c.33,0,.66-.03.99-.08.33-.05.62-.15.88-.29.26-.14.46-.35.62-.62.15-.27.23-.62.23-1.04s-.08-.78-.23-1.05c-.16-.27-.36-.47-.62-.62-.26-.14-.55-.24-.88-.29-.33-.05-.66-.08-.99-.08h-2.25v4.07Z"/>
  <g>
    <rect class="cls-3" x="78.07" y="32.24" width="27.64" height="27.64"/>
    <path d="m104.84,33.11v25.89h-25.89v-25.89h25.89m1.75-1.75h-29.39v29.39h29.39v-29.39h0Z"/>
  </g>
  <path d="m142.37,17.21c0-3.65,1.48-6.43,4.18-6.43s4.02,2.59,4.02,6.43-1.3,6.65-4.07,6.65c-2.56,0-4.13-2.23-4.13-6.65Zm6.65-.68c-.02-2.54-.82-4.59-2.56-4.59-1.59,0-2.54,2.16-2.54,4.59h5.09Zm-5.09,1.18c0,3.18,1.07,4.99,2.61,4.99,1.68,0,2.48-2.07,2.48-4.99h-5.09Z"/>
</svg>