<?xml version="1.0" encoding="UTF-8" standalone="no"?>
<svg
   viewBox="0 0 332.96676 89.484991"
   version="1.1"
   id="svg4395"
   sodipodi:docname="Plenoptic_Logo_CMYK_Full_DarkMode_Wide.svg"
   width="332.96677"
   height="89.484993"
   inkscape:version="1.2.2 (b0a8486541, 2022-12-01)"
   xmlns:inkscape="http://www.inkscape.org/namespaces/inkscape"
   xmlns:sodipodi="http://sodipodi.sourceforge.net/DTD/sodipodi-0.dtd"
   xmlns="http://www.w3.org/2000/svg"
   xmlns:svg="http://www.w3.org/2000/svg">
  <sodipodi:namedview
     id="namedview4397"
     pagecolor="#ffffff"
     bordercolor="#000000"
     borderopacity="0.25"
     inkscape:showpageshadow="2"
     inkscape:pageopacity="0.0"
     inkscape:pagecheckerboard="0"
     inkscape:deskcolor="#d1d1d1"
     showgrid="false"
     inkscape:zoom="2.7622435"
     inkscape:cx="121.82127"
     inkscape:cy="-46.339145"
     inkscape:window-width="1898"
     inkscape:window-height="2080"
     inkscape:window-x="2892"
     inkscape:window-y="64"
     inkscape:window-maximized="1"
     inkscape:current-layer="svg4395" />
  <defs
     id="defs4355">
    <style
       id="style4353">.cls-1{fill:#f15b41;}.cls-2{fill:#fff;}.cls-3{fill:#d3d3d3;}</style>
  </defs>
  <g
     id="g4562"
     transform="translate(168.33678,-74.772503)"
     style="fill:#ffffff">
    <path
       d="m 0,110.55 h 3.38 v 2.56 h 0.08 a 6.46,6.46 0 0 1 2.68,-2.22 8.39,8.39 0 0 1 3.51,-0.79 9.38,9.38 0 0 1 3.74,0.72 8.23,8.23 0 0 1 2.85,2 8.79,8.79 0 0 1 1.82,3 10.28,10.28 0 0 1 0.64,3.66 10.38,10.38 0 0 1 -0.64,3.7 8.65,8.65 0 0 1 -1.82,3 8.46,8.46 0 0 1 -2.85,2 9.38,9.38 0 0 1 -3.74,0.71 8.31,8.31 0 0 1 -3.6,-0.8 6.12,6.12 0 0 1 -2.59,-2.2 H 3.38 v 13.14 H 0 Z m 9.24,2.71 A 6,6 0 0 0 6.8,113.73 5.27,5.27 0 0 0 5,115 a 5.71,5.71 0 0 0 -1.17,2 7.8,7.8 0 0 0 0,5 5.76,5.76 0 0 0 1.17,2 5.29,5.29 0 0 0 1.84,1.28 6.14,6.14 0 0 0 2.44,0.47 6.17,6.17 0 0 0 2.44,-0.47 5.38,5.38 0 0 0 1.84,-1.28 5.59,5.59 0 0 0 1.16,-2 7.62,7.62 0 0 0 0,-5 5.54,5.54 0 0 0 -1.16,-2 5.36,5.36 0 0 0 -1.84,-1.27 6,6 0 0 0 -2.48,-0.47 z"
       id="path4357"
       style="fill:#ffffff" />
    <path
       d="m 24.15,100 h 3.38 v 28.39 h -3.38 z"
       id="path4359"
       style="fill:#ffffff" />
    <path
       d="m 36.39,120.69 a 4.54,4.54 0 0 0 0.5,2.12 5.34,5.34 0 0 0 1.34,1.64 6.2,6.2 0 0 0 1.91,1 6.91,6.91 0 0 0 2.26,0.37 5,5 0 0 0 2.74,-0.73 9,9 0 0 0 2.14,-1.93 l 2.55,2 a 9.38,9.38 0 0 1 -7.83,3.64 9.74,9.74 0 0 1 -3.82,-0.71 8.33,8.33 0 0 1 -2.89,-2 8.81,8.81 0 0 1 -1.82,-3 10.61,10.61 0 0 1 -0.64,-3.7 9.63,9.63 0 0 1 0.7,-3.7 9.25,9.25 0 0 1 1.91,-3 8.76,8.76 0 0 1 2.91,-2 9.33,9.33 0 0 1 3.65,-0.59 8.8,8.8 0 0 1 4,0.83 7.88,7.88 0 0 1 2.69,2.16 8.68,8.68 0 0 1 1.52,3 12.68,12.68 0 0 1 0.47,3.4 v 1.2 z M 47.05,118 a 7.12,7.12 0 0 0 -0.35,-2.07 4.75,4.75 0 0 0 -1,-1.63 4.46,4.46 0 0 0 -1.6,-1.09 5.88,5.88 0 0 0 -2.23,-0.39 5.27,5.27 0 0 0 -2.27,0.47 5.55,5.55 0 0 0 -2.86,2.89 4.62,4.62 0 0 0 -0.39,1.82 z"
       id="path4361"
       style="fill:#ffffff" />
    <path
       d="M 55.65,110.55 H 59 v 2.74 h 0.08 a 5,5 0 0 1 2.24,-2.29 7.43,7.43 0 0 1 3.68,-0.9 7.55,7.55 0 0 1 2.46,0.4 5.54,5.54 0 0 1 2.07,1.22 5.79,5.79 0 0 1 1.41,2.12 8.1,8.1 0 0 1 0.52,3.06 v 11.45 H 68 v -10.51 a 6,6 0 0 0 -0.33,-2.12 3.87,3.87 0 0 0 -0.91,-1.43 3.31,3.31 0 0 0 -1.29,-0.79 4.88,4.88 0 0 0 -1.52,-0.24 5.62,5.62 0 0 0 -2,0.33 4.06,4.06 0 0 0 -1.58,1.08 5,5 0 0 0 -1.05,1.85 8.46,8.46 0 0 0 -0.38,2.67 v 9.16 h -3.29 z"
       id="path4363"
       style="fill:#ffffff" />
    <path
       d="m 76.6,119.45 a 9,9 0 0 1 0.74,-3.64 9.62,9.62 0 0 1 2,-3 9.23,9.23 0 0 1 3,-2 9.72,9.72 0 0 1 7.44,0 9.23,9.23 0 0 1 3,2 9.62,9.62 0 0 1 2,3 9.49,9.49 0 0 1 0,7.3 9.28,9.28 0 0 1 -2,3 9.49,9.49 0 0 1 -6.72,2.72 9.39,9.39 0 0 1 -3.72,-0.73 9.53,9.53 0 0 1 -3,-2 9.28,9.28 0 0 1 -2,-3 9.1,9.1 0 0 1 -0.74,-3.65 z m 3.61,0 a 7.45,7.45 0 0 0 0.41,2.5 5.76,5.76 0 0 0 1.17,2 5.29,5.29 0 0 0 1.84,1.28 6.57,6.57 0 0 0 4.88,0 5.38,5.38 0 0 0 1.84,-1.28 5.59,5.59 0 0 0 1.16,-2 7.62,7.62 0 0 0 0,-5 5.54,5.54 0 0 0 -1.16,-2 5.36,5.36 0 0 0 -1.84,-1.27 6.57,6.57 0 0 0 -4.88,0 5.27,5.27 0 0 0 -1.84,1.32 5.71,5.71 0 0 0 -1.17,2 7.39,7.39 0 0 0 -0.41,2.45 z"
       id="path4365"
       style="fill:#ffffff" />
    <path
       d="m 100.71,110.55 h 3.38 v 2.56 h 0.08 a 6.46,6.46 0 0 1 2.68,-2.22 8.39,8.39 0 0 1 3.51,-0.79 9.34,9.34 0 0 1 3.74,0.72 8.27,8.27 0 0 1 2.86,2 9.12,9.12 0 0 1 1.82,3 10.9,10.9 0 0 1 0,7.36 9,9 0 0 1 -1.82,3 8.5,8.5 0 0 1 -2.86,2 9.34,9.34 0 0 1 -3.74,0.71 8.38,8.38 0 0 1 -3.6,-0.8 6.12,6.12 0 0 1 -2.59,-2.2 h -0.08 v 13.14 h -3.38 z m 9.24,2.71 a 6,6 0 0 0 -2.44,0.47 5.27,5.27 0 0 0 -1.84,1.27 5.54,5.54 0 0 0 -1.16,2 7.62,7.62 0 0 0 0,5 5.59,5.59 0 0 0 1.16,2 5.29,5.29 0 0 0 1.84,1.28 6.57,6.57 0 0 0 4.88,0 5.29,5.29 0 0 0 1.84,-1.28 5.76,5.76 0 0 0 1.17,-2 7.8,7.8 0 0 0 0,-5 5.71,5.71 0 0 0 -1.17,-2 5.27,5.27 0 0 0 -1.84,-1.27 6,6 0 0 0 -2.39,-0.47 z"
       id="path4367"
       style="fill:#ffffff" />
    <path
       d="m 134.13,113.48 h -4.84 v 8.08 c 0,0.5 0,1 0,1.48 a 3.76,3.76 0 0 0 0.28,1.31 2.1,2.1 0 0 0 0.75,0.94 2.55,2.55 0 0 0 1.48,0.36 7.61,7.61 0 0 0 1.24,-0.11 3.7,3.7 0 0 0 1.17,-0.42 v 3.08 a 4.36,4.36 0 0 1 -1.56,0.47 11.2,11.2 0 0 1 -1.48,0.13 6.87,6.87 0 0 1 -3,-0.54 3.62,3.62 0 0 1 -1.57,-1.41 4.66,4.66 0 0 1 -0.61,-1.93 q -0.09,-1.08 -0.09,-2.16 v -9.28 H 122 v -2.93 h 3.9 v -5 h 3.38 v 5 h 4.84 z"
       id="path4369"
       style="fill:#ffffff" />
    <path
       d="m 138.9,104.17 a 2.49,2.49 0 0 1 2.48,-2.48 2.47,2.47 0 0 1 1.75,4.23 2.48,2.48 0 0 1 -4.23,-1.75 z m 0.79,6.38 h 3.38 v 17.8 h -3.38 z"
       id="path4371"
       style="fill:#ffffff" />
    <path
       d="m 162.11,115.28 a 7.17,7.17 0 0 0 -2,-1.48 5.51,5.51 0 0 0 -2.46,-0.51 5.39,5.39 0 0 0 -2.42,0.51 4.91,4.91 0 0 0 -1.73,1.39 6.42,6.42 0 0 0 -1.05,2 7.89,7.89 0 0 0 -0.36,2.38 6.79,6.79 0 0 0 0.41,2.35 6,6 0 0 0 1.17,1.93 5.33,5.33 0 0 0 1.8,1.3 5.79,5.79 0 0 0 2.37,0.47 5.39,5.39 0 0 0 2.44,-0.51 6.26,6.26 0 0 0 1.87,-1.48 l 2.41,2.4 a 7.64,7.64 0 0 1 -3.06,2.11 10.85,10.85 0 0 1 -3.7,0.63 10.21,10.21 0 0 1 -3.78,-0.67 8.62,8.62 0 0 1 -2.94,-1.9 8.29,8.29 0 0 1 -1.92,-2.93 10.16,10.16 0 0 1 -0.67,-3.77 10.3,10.3 0 0 1 0.67,-3.79 8.45,8.45 0 0 1 4.83,-4.9 9.91,9.91 0 0 1 3.81,-0.7 10.1,10.1 0 0 1 3.74,0.7 8.19,8.19 0 0 1 3.09,2.12 z"
       id="path4373"
       style="fill:#ffffff" />
  </g>
  <circle
     class="cls-1"
     cx="25.32"
     cy="44.419998"
     r="17.959999"
     id="circle4375"
     transform="translate(-6.58,0.185)" />
  <circle
     class="cls-2"
     cx="141.13"
     cy="16.049999"
     r="15.31"
     id="circle4377"
     transform="translate(-6.58,0.185)"
     style="fill:none" />
  <circle
     class="cls-2"
     cx="141.13"
     cy="73.349998"
     r="15.46"
     id="circle4379"
     transform="translate(-6.58,0.185)"
     style="fill:none" />
  <rect
     class="cls-3"
     x="72.940002"
     y="30.34"
     width="28.16"
     height="28.16"
     id="rect4381"
     transform="translate(-6.58,0.185)" />
  <path
     d="m 25.32,27.46 a 17,17 0 1 1 -17,17 17,17 0 0 1 17,-17 m 0,-1.75 A 18.71,18.71 0 1 0 44,44.42 18.71,18.71 0 0 0 25.32,25.71 Z"
     id="path4383"
     transform="translate(-6.58,0.185)"
     style="fill:#ffffff" />
  <path
     class="cls-2"
     d="m 28,41.1 a 2,2 0 0 0 -0.93,-0.64 3.41,3.41 0 0 0 -1.09,-0.2 2.7,2.7 0 0 0 -0.63,0.07 2.61,2.61 0 0 0 -0.61,0.22 1.4,1.4 0 0 0 -0.46,0.41 1.11,1.11 0 0 0 0.25,1.48 4.35,4.35 0 0 0 1.07,0.56 l 1.4,0.43 a 5.87,5.87 0 0 1 1.41,0.6 3.52,3.52 0 0 1 1.08,1.06 3.26,3.26 0 0 1 0.43,1.77 4.12,4.12 0 0 1 -0.4,1.84 3.64,3.64 0 0 1 -1.06,1.3 4.56,4.56 0 0 1 -1.56,0.77 7.17,7.17 0 0 1 -4.15,-0.12 5.81,5.81 0 0 1 -2,-1.22 l 2,-2.18 a 2.73,2.73 0 0 0 1.08,0.88 3,3 0 0 0 1.35,0.32 3.4,3.4 0 0 0 0.69,-0.08 2.67,2.67 0 0 0 0.62,-0.24 1.4,1.4 0 0 0 0.45,-0.42 1,1 0 0 0 0.17,-0.58 1.08,1.08 0 0 0 -0.44,-0.91 4.18,4.18 0 0 0 -1.1,-0.56 C 25.13,45.51 24.65,45.35 24.14,45.2 a 6.82,6.82 0 0 1 -1.43,-0.63 3.41,3.41 0 0 1 -1.1,-1 A 2.94,2.94 0 0 1 21.18,41.88 3.78,3.78 0 0 1 21.6,40 3.94,3.94 0 0 1 22.67,38.71 4.74,4.74 0 0 1 24.21,38 6.14,6.14 0 0 1 26,37.69 a 7.2,7.2 0 0 1 2.07,0.3 4.73,4.73 0 0 1 1.81,1 z"
     id="path4385"
     transform="translate(-6.58,0.185)" />
  <path
     d="m 136.37,66.66 h 4.45 a 5.28,5.28 0 0 1 2,0.33 3.47,3.47 0 0 1 1.24,0.84 2.92,2.92 0 0 1 0.64,1.17 4.47,4.47 0 0 1 0.18,1.23 3.36,3.36 0 0 1 -0.21,1.17 3.45,3.45 0 0 1 -1.6,1.78 3.46,3.46 0 0 1 -1.3,0.39 l 3.59,5.77 h -2.14 L 140,73.73 h -1.91 v 5.58 h -1.72 z m 1.72,5.57 h 2.25 a 5.51,5.51 0 0 0 1,-0.08 2.68,2.68 0 0 0 0.88,-0.29 1.75,1.75 0 0 0 0.62,-0.62 2.11,2.11 0 0 0 0.23,-1 2.15,2.15 0 0 0 -0.23,-1 1.75,1.75 0 0 0 -0.62,-0.62 2.68,2.68 0 0 0 -0.88,-0.29 6.61,6.61 0 0 0 -1,-0.08 h -2.25 z"
     id="path4387"
     transform="translate(-6.58,0.185)"
     style="fill:#ffffff" />
  <path
     d="m 141.13,57.3 a 16,16 0 0 0 -16,14.89 H 88.77 V 59.11 h 13 V 29.72 h -13 V 16.64 h 36.35 a 15.95,15.95 0 1 0 0,-1.75 H 87 V 29.72 H 72.33 V 43.54 H 49.69 l 5.38,-5 -1.19,-1.28 -7.7,7.16 7.7,7.15 1.19,-1.28 -5.37,-5 H 72.33 V 59.11 H 87 v 14.83 h 38.1 a 16,16 0 1 0 16,-16.64 z m 0,-55.55 a 14.3,14.3 0 1 1 -14.29,14.3 14.32,14.32 0 0 1 14.29,-14.3 z m -67,29.72 H 100 V 57.36 H 74.08 Z m 67.05,56.17 a 14.3,14.3 0 1 1 14.3,-14.29 14.31,14.31 0 0 1 -14.35,14.29 z"
     id="path4389"
     transform="translate(-6.58,0.185)"
     style="fill:#ffffff" />
  <path
     d="m 137.49,15.57 c 0,-3.64 1.49,-6.43 4.19,-6.43 2.7,0 4,2.59 4,6.43 0,4 -1.31,6.65 -4.08,6.65 -2.53,0 -4.11,-2.22 -4.11,-6.65 z m 6.65,-0.68 c 0,-2.54 -0.82,-4.59 -2.55,-4.59 -1.73,0 -2.54,2.16 -2.54,4.59 z m -5.09,1.18 c 0,3.18 1.07,5 2.61,5 1.54,0 2.48,-2.08 2.48,-5 z"
     id="path4391"
     transform="translate(-6.58,0.185)"
     style="fill:#ffffff" />
</svg>
